<?xml version="1.0" encoding="UTF-8" standalone="no"?>
<!DOCTYPE svg PUBLIC "-//W3C//DTD SVG 1.1//EN" "http://www.w3.org/Graphics/SVG/1.1/DTD/svg11.dtd">
<svg width="100%" height="100%" viewBox="0 0 966 198" version="1.1" xmlns="http://www.w3.org/2000/svg" xmlns:xlink="http://www.w3.org/1999/xlink" xml:space="preserve" xmlns:serif="http://www.serif.com/" style="fill-rule:evenodd;clip-rule:evenodd;stroke-linejoin:round;stroke-miterlimit:2;">
    <g transform="matrix(0.573275,0,0,0.573275,-32.7658,-1233.32)">
        <g transform="matrix(0.541159,0,0,0.541159,-698.015,1736.4)">
            <g transform="matrix(1,0,0,1,-73.9041,-63.0778)">
                <circle cx="1788.41" cy="1148.9" r="319.04" style="fill:rgb(242,242,242);"/>
            </g>
            <g transform="matrix(1,0,0,1,660.172,-3.50534)">
                <path d="M871.026,1015.38C871.026,1015.38 872.222,1221.3 1075.63,1239.12C1083.4,1238.99 1160.32,1247.01 1228.52,1174.03C1218.95,1177.02 1035.83,1196.18 1034.69,1034.15C1034.56,1015.52 1055.03,961.758 1119.64,984.492C1110.67,973.125 1065.8,889.371 968.884,891.165C972.474,882.79 971.876,867.236 991.019,851.083C983.841,852.279 959.312,853.476 950.339,884.585C946.749,877.406 938.972,866.637 919.828,867.834C930.597,880.397 939.57,889.969 939.57,897.148C935.383,897.746 873.673,923.022 871.026,1015.38Z" style="fill:rgb(77,109,88);"/>
            </g>
            <g transform="matrix(1.02895,0,0,1.01815,627.247,-22.4513)">
                <path d="M1323.46,1074.05C1323.46,1074.05 1239.22,1106.12 1143.98,1002.26C1140.15,998.911 1102.82,966.845 1071.72,981.681C1070.28,984.553 1026.25,999.475 1035.34,1063.61C1037.26,1077.96 1058.32,1158.37 1154.99,1172.73C1167.91,1175.12 1211.32,1180.34 1247.15,1164.72C1250.21,1163.49 1289.19,1153.11 1323.46,1074.05Z" style="fill:rgb(204,126,133);"/>
            </g>
            <g transform="matrix(1.12667,0,0,0.905419,525.549,112.53)">
                <path d="M1042.96,1234.93L1029.56,1309.98L1044.11,1312.66L1052.53,1237.23L1042.96,1234.93Z" style="fill:rgb(73,109,165);"/>
            </g>
            <g transform="matrix(1.48,0,0,1.03719,134.373,-50.0013)">
                <path d="M1091.59,1240.29L1085.84,1317.25L1096.18,1317.25L1099.24,1239.91L1091.59,1240.29Z" style="fill:rgb(73,109,165);"/>
            </g>
            <g transform="matrix(1,0,0,1,660.172,-3.50534)">
                <path d="M879.517,972.867C879.517,972.867 845.865,985.954 837.452,987.823C872.039,1014 872.039,1015.87 872.039,1015.87C872.039,1015.87 873.908,975.671 879.517,972.867" style="fill:rgb(77,109,88);"/>
            </g>
            <g transform="matrix(1,0,0,1,663.906,-16.9335)">
                <path d="M1023.27,1307.82C1023.27,1307.82 1218.9,1355.68 1248.21,1390.98C1244.03,1400.55 1214.85,1407.05 1166.39,1377.13C1117.94,1347.22 812.681,1298.66 825.245,1271.14C827.638,1265.16 980.807,1289.46 1023.27,1307.82Z" style="fill:rgb(73,109,165);"/>
            </g>
            <g transform="matrix(1,0,0,1,658.302,-5.37485)">
                <circle cx="943.08" cy="986.888" r="19.63" style="fill:white;"/>
            </g>
        </g>
        <g transform="matrix(6.54828,0,0,6.54828,-6484.91,-5828.51)">
            <text x="1054.59px" y="1260.92px" style="font-family:'NotoSansTC-Bold', 'Noto Sans TC', sans-serif;font-weight:700;font-size:43.07px;fill:rgb(77,109,88);">C<tspan x="1078.92px 1107.57px 1117.82px 1143.23px " y="1260.92px 1260.92px 1260.92px 1260.92px ">HIRP</tspan></text>
        </g>
        <g transform="matrix(0.541159,0,0,0.541159,702.111,1501.63)">
            <text x="933.822px" y="1700.45px" style="font-family:'NotoSansTC-Regular', 'Noto Sans TC', sans-serif;font-size:521.171px;fill:rgb(77,109,88);">鳥<tspan x="1423.2px " y="1700.45px ">牌</tspan></text>
        </g>
    </g>
</svg>
