<?xml version="1.0" encoding="UTF-8" standalone="no"?>
<!DOCTYPE svg PUBLIC "-//W3C//DTD SVG 1.1//EN" "http://www.w3.org/Graphics/SVG/1.1/DTD/svg11.dtd">
<svg width="100%" height="100%" viewBox="0 0 1100 3386" version="1.1" xmlns="http://www.w3.org/2000/svg" xmlns:xlink="http://www.w3.org/1999/xlink" xml:space="preserve" xmlns:serif="http://www.serif.com/" style="fill-rule:evenodd;clip-rule:evenodd;stroke-linecap:round;stroke-linejoin:round;stroke-miterlimit:1.5;">
    <path d="M1100.73,-3.458L-1.858,-3.458L-1.858,3393.1L1100.73,3393.1L1100.73,-3.458ZM276.057,375.459C276.057,375.459 268.023,396.692 254.824,403.579C244.494,411.039 46.906,499.859 11.039,748.685C8.798,935.864 15.858,3186.96 15.388,3186.26C16.328,3193.55 10.259,3277.89 146.886,3325.79C153.938,3329.02 442.138,3422.41 876.498,3342.6C889.423,3339.91 1061.58,3325.57 1088.48,3174.93C1090.28,3122.92 1072.85,758.436 1078.3,752.984C1078.25,742.648 1070.84,528.953 824.796,399.833C820.492,394.812 805.428,379.03 814.036,379.03C820.492,378.313 857.076,378.313 859.228,381.182C858.51,374.726 865.655,352.774 850.23,346.163C855.004,342.49 850.23,345.061 855.004,342.857C855.004,339.185 856.55,42.523 856.55,40.643C856.55,38.762 854.435,28.42 844.797,25.129C839.626,23.249 361.033,-5.457 245.373,23.38C240.182,27.827 240.092,29.633 239.151,31.702C238.211,33.77 229.179,321.653 232.319,330.673C233.44,333.893 235.601,333.97 236.372,335.029C236.853,337.244 238.49,344.657 236.468,345.042C234.446,345.428 231.558,345.331 230.884,347.931C230.21,350.53 227.454,373.535 231.027,374.475C234.599,375.415 272.383,371.366 276.057,375.459Z" style="fill:rgb(248,249,250);"/>
    <g transform="matrix(0.839976,0,0,0.839976,8.52438,10.3766)">
        <path d="M1003.89,394.389L273.729,385.849L273.729,395.456L263.054,399.726L264.122,427.481L1014.57,439.223L1011.37,403.996L1002.99,400.046L1003.89,394.389Z" style="fill:none;stroke:black;stroke-width:25.24px;"/>
    </g>
    <g transform="matrix(0.839976,0,0,0.839976,8.52438,10.3766)">
        <path d="M318.5,434.635C318.5,434.635 308.935,459.913 293.222,468.111C280.924,476.993 45.694,582.734 2.994,878.963C0.325,1101.8 8.731,3781.76 8.171,3780.92C9.29,3789.6 2.066,3890.01 164.721,3947.03C173.116,3950.88 516.221,4062.06 1033.33,3967.05C1048.72,3963.85 1253.68,3946.77 1285.7,3767.43C1287.84,3705.51 1267.09,890.573 1273.58,884.082C1273.53,871.776 1264.7,617.371 971.78,463.652C966.656,457.674 948.722,438.886 958.97,438.886C966.656,438.032 1010.21,438.032 1012.77,441.448C1011.92,433.762 1020.42,407.627 1002.06,399.757C1007.74,395.384 1002.06,398.445 1007.74,395.822C1007.74,391.449 1009.58,38.271 1009.58,36.032C1009.58,33.794 1007.07,21.481 995.592,17.563C989.435,15.324 419.665,-18.85 281.971,15.48C275.791,20.775 275.683,22.925 274.564,25.388C273.445,27.85 262.691,370.578 266.43,381.316C267.764,385.15 270.338,385.242 271.254,386.503C271.828,389.139 273.776,397.965 271.369,398.423C268.962,398.882 265.523,398.767 264.721,401.862C263.919,404.957 260.638,432.344 264.891,433.463C269.145,434.583 314.127,429.762 318.5,434.635Z" style="fill:none;stroke:black;stroke-width:25.24px;"/>
    </g>
</svg>
