<?xml version="1.0" encoding="UTF-8" standalone="no"?>
<!DOCTYPE svg PUBLIC "-//W3C//DTD SVG 1.1//EN" "http://www.w3.org/Graphics/SVG/1.1/DTD/svg11.dtd">
<svg width="100%" height="100%" viewBox="0 0 137 95" version="1.1" xmlns="http://www.w3.org/2000/svg" xmlns:xlink="http://www.w3.org/1999/xlink" xml:space="preserve" xmlns:serif="http://www.serif.com/" style="fill-rule:evenodd;clip-rule:evenodd;stroke-linecap:round;stroke-linejoin:round;stroke-miterlimit:1.5;">
    <g transform="matrix(0.242999,0,0,0.242999,-54.628,-34.5713)">
        <g transform="matrix(1,0,0,1,-349.528,19.5264)">
            <path d="M724.23,231.539C724.23,231.009 723.8,230.579 723.27,230.579L721.351,230.579C720.821,230.579 720.391,231.009 720.391,231.539L720.391,243.794C720.391,244.324 720.821,244.754 721.351,244.754L723.27,244.754C723.8,244.754 724.23,244.324 724.23,243.794L724.23,231.539Z" style="stroke:black;stroke-width:6.58px;"/>
        </g>
        <g transform="matrix(1,0,0,1,-349.528,23.6417)">
            <path d="M696.37,297.778C696.37,297.778 706.41,250.235 735.645,259.094C738.598,260.866 764.879,280.946 696.37,297.778Z" style="fill:none;stroke:black;stroke-width:6.58px;"/>
        </g>
        <g transform="matrix(1,0,0,1,-349.528,23.6417)">
            <path d="M725.384,296.072C717.934,296.981 714.95,297.105 712.894,295.581C709.351,295.877 696.358,300.601 696.948,297.944C697.834,296.172 699.494,278.968 711.657,266.014C711.657,266.014 711.418,246.562 734.746,250.401C739.176,251.287 752.16,253.056 745.967,271.662" style="fill:none;stroke:black;stroke-width:6.58px;"/>
        </g>
        <g transform="matrix(1,0,0,1,-349.528,23.6417)">
            <path d="M745.967,271.662C745.967,271.662 743.474,294.616 725.384,296.072" style="fill:none;stroke:black;stroke-width:6.58px;"/>
        </g>
        <g transform="matrix(1,0,0,1,-349.528,23.6417)">
            <path d="M766.146,178.275C766.146,178.275 698.378,178.275 673.866,262.624C667.378,253.973 633.494,235.02 605.377,120.6C600.33,128.018 577.26,183.53 601.051,239.043C595.284,231.112 585.912,229.67 577.981,215.252C575.819,220.298 569.33,245.531 611.865,279.415C602.493,276.531 583.749,276.531 581.586,281.578C583.749,285.904 588.795,303.206 634.215,319.067C632.052,321.23 618.354,322.671 618.354,328.439C625.563,333.486 629.168,341.416 665.215,345.021C667.378,355.114 678.913,478.394 802.193,494.255C807.24,500.022 813.928,512.782 836.277,509.899C834.835,509.899 841.502,506.446 832.431,497.254C833.399,497.133 837.586,507.861 851.254,507.015C852.947,506.416 850.738,497.703 847.605,497.395C852.053,497.395 920.61,477.233 923.445,479.359C926.279,481.485 936.011,488.214 948.21,485.613C948.954,485.117 952.545,479.606 946.167,475.519C947.653,475.828 960.41,477.438 961.711,471.865C961.649,469.945 964.339,469.353 956.404,460.451C957.952,458.806 985.031,443.814 991.268,399.401C991.645,398.645 1074.61,406.583 1105.61,395.622C1103.34,393.354 1067.62,386.739 992.968,380.502C997.693,379.558 1147.56,341.949 1132.25,337.791C1119.97,336.09 1055.52,336.846 989.189,363.304C996.37,360.281 1111.65,309.253 1094.08,308.308C1088.79,308.686 996.937,334.389 977.849,347.807C974.825,344.405 969.894,335.862 964.693,332.959C961.791,334.41 926.337,348.562 908.934,339.853C910.883,339.611 920.317,351.725 965.917,332.009C967.368,330.316 986.116,319.914 983.697,311.205C980.673,311.084 979.947,309.149 964.465,310.238C968.094,309.149 1021.92,294.591 1024.46,261.131C1019.86,261.779 966.764,267.827 970.634,264.924C974.505,262.021 1025.88,229.524 1031.32,187.04C1028,187.493 1011.37,192.936 980.522,211.23C983.697,207.904 1058.01,144.363 1045.35,138.583C1041.57,139.039 860.502,216.841 850.308,280.592C851.631,273.768 859.164,260.694 857.616,259.022C856.068,257.35 845.376,242.545 840.06,218.035C838.879,214.787 818.324,170.111 766.146,178.275Z" style="fill:none;stroke:black;stroke-width:6.58px;"/>
        </g>
        <g transform="matrix(1,0,0,1,-349.291,26.004)">
            <path d="M752.578,225.486C752.578,224.874 752.082,224.378 751.471,224.378L749.256,224.378C748.645,224.378 748.149,224.874 748.149,225.486L748.149,237.445C748.149,238.056 748.645,238.552 749.256,238.552L751.471,238.552C752.082,238.552 752.578,238.056 752.578,237.445L752.578,225.486Z" style="stroke:black;stroke-width:6.58px;"/>
        </g>
        <g transform="matrix(1,0,0,1,-349.528,23.6417)">
            <path d="M991.268,399.401C991.268,399.401 998.858,375.72 965.917,332.009" style="fill:none;stroke:black;stroke-width:6.58px;"/>
        </g>
        <g transform="matrix(1,0,0,1,-349.528,23.6417)">
            <path d="M923.445,479.359C923.445,479.359 938.883,472.842 956.404,460.451" style="fill:none;stroke:black;stroke-width:6.58px;"/>
        </g>
        <g transform="matrix(1,0,0,1,-349.528,23.6417)">
            <path d="M802.193,494.255C802.193,494.255 817.026,498.283 847.605,497.395" style="fill:none;stroke:black;stroke-width:6.58px;"/>
        </g>
        <g transform="matrix(1,0,0,1,-349.528,23.6417)">
            <path d="M673.866,262.624C673.866,262.624 657.568,284.662 665.215,345.021" style="fill:none;stroke:black;stroke-width:6.58px;"/>
        </g>
    </g>
</svg>
